<?xml version="1.0" standalone="no"?>
<svg viewBox="0 0 200 200" xmlns="http://www.w3.org/2000/svg">
  <path fill="#FF0066" d="M40.1,-71.6C51.4,-62.9,59.5,-51,61.3,-38.5C63.2,-26,58.6,-13,59.4,0.4C60.1,13.9,66.1,27.7,64.1,39.9C62.1,52.1,52.1,62.5,40.1,64.3C28.1,66.1,14,59.2,0.2,58.8C-13.6,58.5,-27.2,64.6,-35.9,60.9C-44.7,57.2,-48.5,43.7,-57.6,31.9C-66.7,20.2,-81.1,10.1,-81.7,-0.4C-82.4,-10.9,-69.4,-21.7,-60.4,-33.6C-51.4,-45.5,-46.3,-58.5,-36.9,-68.3C-27.5,-78,-13.8,-84.6,0.3,-85.1C14.4,-85.7,28.8,-80.3,40.1,-71.6Z" transform="translate(100 100)" />
</svg>
