<?xml version="1.0" encoding="UTF-8" standalone="no"?>
<svg
   width="400"
   height="400"
   viewBox="0 0 400 400"
   fill="none"
   version="1.1"
   id="svg4"
   sodipodi:docname="github-logo.svg"
   inkscape:version="1.2.1 (9c6d41e410, 2022-07-14)"
   xmlns:inkscape="http://www.inkscape.org/namespaces/inkscape"
   xmlns:sodipodi="http://sodipodi.sourceforge.net/DTD/sodipodi-0.dtd"
   xmlns="http://www.w3.org/2000/svg"
   xmlns:svg="http://www.w3.org/2000/svg">
  <defs
     id="defs8" />
  <sodipodi:namedview
     id="namedview6"
     pagecolor="#ffffff"
     bordercolor="#000000"
     borderopacity="0.25"
     inkscape:showpageshadow="2"
     inkscape:pageopacity="0.0"
     inkscape:pagecheckerboard="0"
     inkscape:deskcolor="#d1d1d1"
     showgrid="false"
     inkscape:zoom="21.34375"
     inkscape:cx="-4.3338214"
     inkscape:cy="8.4333821"
     inkscape:window-width="1600"
     inkscape:window-height="837"
     inkscape:window-x="-8"
     inkscape:window-y="-8"
     inkscape:window-maximized="1"
     inkscape:current-layer="svg4" />
  <path
     fill-rule="evenodd"
     clip-rule="evenodd"
     d="M 199.38825,0 C 89.296496,0 0,89.296496 0,199.38825 0,287.4625 57.492248,362.08 135.77975,388.99 c 9.786,1.225 13.45575,-4.8925 13.45575,-9.785 0,-4.8925 0,-17.125 0,-34.25 C 94.189504,357.1875 81.957248,318.0425 81.957248,318.0425 73.3945,294.8 59.938748,288.685 59.938748,288.685 41.590248,276.4525 61.162,276.4525 61.162,276.4525 c 19.572,1.2225 30.581,20.795 30.581,20.795 18.34875,30.58 46.48325,22.0175 57.4925,17.125 1.22325,-13.455 7.3395,-22.0175 12.2325,-26.91 -44.03675,-4.8925 -90.52,-22.02 -90.52,-99.08325 0,-22.0185 7.3395,-39.14375 20.795,-53.82275 -1.223248,-3.66975 -8.562504,-24.46475 2.446504,-51.376004 0,0 17.125496,-4.892996 55.045996,20.795004 15.902,-4.892996 33.0275,-6.116252 50.15275,-6.116252 17.12551,0 34.25099,2.446502 50.15299,6.116252 37.92126,-25.688 55.04626,-20.795004 55.04626,-20.795004 11.01,26.911254 3.67,47.706254 2.445,52.599254 12.2325,13.45575 20.795,31.80425 20.795,53.82275 0,77.065 -46.4825,92.9675 -90.51874,97.86 7.33948,6.115 13.45624,18.3475 13.45624,36.6975 0,26.91 0,47.705 0,55.045 0,4.8925 3.67,11.01 13.455,9.785 C 343.73,362.08 400,287.4625 400,199.38825 398.7775,89.296496 309.48,0 199.38825,0 Z"
     fill="#C5C5C5"
     id="path2"
     style="fill:#141414;fill-opacity:1;stroke-width:25" />
</svg>
