<?xml version="1.0" encoding="UTF-8" standalone="no"?>
<svg
   clip-rule="evenodd"
   fill-rule="evenodd"
   stroke-linejoin="round"
   stroke-miterlimit="2"
   viewBox="0 0 24 24"
   version="1.1"
   id="svg4"
   sodipodi:docname="menu.svg"
   inkscape:version="1.2.1 (9c6d41e410, 2022-07-14)"
   xmlns:inkscape="http://www.inkscape.org/namespaces/inkscape"
   xmlns:sodipodi="http://sodipodi.sourceforge.net/DTD/sodipodi-0.dtd"
   xmlns="http://www.w3.org/2000/svg"
   xmlns:svg="http://www.w3.org/2000/svg">
  <defs
     id="defs8" />
  <sodipodi:namedview
     id="namedview6"
     pagecolor="#ffffff"
     bordercolor="#000000"
     borderopacity="0.25"
     inkscape:showpageshadow="2"
     inkscape:pageopacity="0.0"
     inkscape:pagecheckerboard="0"
     inkscape:deskcolor="#d1d1d1"
     showgrid="false"
     inkscape:zoom="14.229167"
     inkscape:cx="9.7686676"
     inkscape:cy="6.8169839"
     inkscape:window-width="1600"
     inkscape:window-height="837"
     inkscape:window-x="-8"
     inkscape:window-y="-8"
     inkscape:window-maximized="1"
     inkscape:current-layer="svg4" />
  <path
     d="m13 16.75c0-.414-.336-.75-.75-.75h-9.5c-.414 0-.75.336-.75.75s.336.75.75.75h9.5c.414 0 .75-.336.75-.75zm2.195-5.992 2.746 2.999c.142.154.342.243.552.243s.41-.088.553-.242l2.757-2.999c.132-.144.197-.326.197-.507 0-.684-.841-1.008-1.303-.508l-2.202 2.397-2.194-2.396c-.46-.503-1.303-.175-1.303.507 0 .18.065.362.197.506zm-2.195.992c0-.414-.336-.75-.75-.75h-9.5c-.414 0-.75.336-.75.75s.336.75.75.75h9.5c.414 0 .75-.336.75-.75zm0-5c0-.414-.336-.75-.75-.75h-9.5c-.414 0-.75.336-.75.75s.336.75.75.75h9.5c.414 0 .75-.336.75-.75z"
     fill-rule="nonzero"
     id="path2"
     style="fill:#fafafa;fill-opacity:1" />
</svg>
