<?xml version="1.0" encoding="UTF-8" standalone="no"?>
<svg
   width="512"
   height="512"
   viewBox="0 0 554.18727 552.58537"
   fill="none"
   version="1.1"
   id="svg68"
   sodipodi:docname="nodejs-logo.svg"
   inkscape:version="1.2.1 (9c6d41e410, 2022-07-14)"
   xmlns:inkscape="http://www.inkscape.org/namespaces/inkscape"
   xmlns:sodipodi="http://sodipodi.sourceforge.net/DTD/sodipodi-0.dtd"
   xmlns="http://www.w3.org/2000/svg"
   xmlns:svg="http://www.w3.org/2000/svg">
  <sodipodi:namedview
     id="namedview70"
     pagecolor="#ffffff"
     bordercolor="#000000"
     borderopacity="0.25"
     inkscape:showpageshadow="2"
     inkscape:pageopacity="0.0"
     inkscape:pagecheckerboard="0"
     inkscape:deskcolor="#d1d1d1"
     showgrid="false"
     showguides="true"
     inkscape:zoom="5.6654775"
     inkscape:cx="481.1598"
     inkscape:cy="273.76333"
     inkscape:window-width="1600"
     inkscape:window-height="837"
     inkscape:window-x="-8"
     inkscape:window-y="-8"
     inkscape:window-maximized="1"
     inkscape:current-layer="svg68">
    <sodipodi:guide
       position="-344.15509,276.31407"
       orientation="0,-1"
       id="guide907"
       inkscape:locked="false" />
  </sodipodi:namedview>
  <g
     clip-path="url(#clip0_337_7900)"
     id="g23"
     transform="matrix(1.9180344,0,0,1.9180344,0,106.07468)">
    <mask
       id="mask0_337_7900"
       maskUnits="userSpaceOnUse"
       x="0"
       y="0"
       width="289"
       height="177">
      <path
         d="M 289,0 H 0 v 177 h 289 z"
         fill="#ffffff"
         id="path2" />
    </mask>
    <g
       mask="url(#mask0_337_7900)"
       id="g21">
      <path
         d="m 142.802,177 c -0.98,0 -1.895,-0.261 -2.744,-0.719 l -8.688,-5.161 c -1.307,-0.719 -0.653,-0.98 -0.262,-1.111 1.764,-0.588 2.091,-0.719 3.92,-1.764 0.196,-0.131 0.457,-0.066 0.653,0.065 l 6.663,3.986 c 0.262,0.13 0.588,0.13 0.784,0 l 26.065,-15.093 c 0.262,-0.131 0.392,-0.392 0.392,-0.719 v -30.121 c 0,-0.326 -0.13,-0.588 -0.392,-0.718 l -26.065,-15.028 c -0.261,-0.131 -0.588,-0.131 -0.784,0 l -26.064,15.028 c -0.262,0.13 -0.392,0.457 -0.392,0.718 v 30.121 c 0,0.261 0.13,0.588 0.392,0.719 l 7.12,4.116 c 3.854,1.96 6.271,-0.327 6.271,-2.614 v -29.728 c 0,-0.392 0.327,-0.784 0.784,-0.784 h 3.332 c 0.392,0 0.784,0.326 0.784,0.784 v 29.728 c 0,5.162 -2.809,8.168 -7.709,8.168 -1.502,0 -2.678,0 -6.01,-1.634 l -6.859,-3.92 a 5.515,5.515 0 0 1 -2.743,-4.77 v -30.12 a 5.514,5.514 0 0 1 2.743,-4.77 l 26.065,-15.093 c 1.633,-0.915 3.854,-0.915 5.487,0 l 26.065,15.093 a 5.513,5.513 0 0 1 2.744,4.77 v 30.12 c 0,1.96 -1.045,3.79 -2.744,4.77 l -26.065,15.093 c -0.784,0.327 -1.763,0.588 -2.743,0.588 z"
         fill="#5fa04e"
         id="path5" />
      <path
         d="m 150.902,156.288 c -11.432,0 -13.784,-5.227 -13.784,-9.67 0,-0.392 0.327,-0.784 0.784,-0.784 h 3.397 c 0.392,0 0.719,0.261 0.719,0.653 0.522,3.463 2.025,5.162 8.949,5.162 5.488,0 7.839,-1.241 7.839,-4.182 0,-1.698 -0.653,-2.94 -9.211,-3.789 -7.12,-0.719 -11.562,-2.287 -11.562,-7.971 0,-5.293 4.442,-8.429 11.889,-8.429 8.362,0 12.477,2.875 13,9.147 0,0.196 -0.066,0.392 -0.196,0.588 -0.131,0.131 -0.327,0.262 -0.523,0.262 h -3.462 a 0.767,0.767 0 0 1 -0.719,-0.588 c -0.784,-3.594 -2.809,-4.77 -8.165,-4.77 -6.01,0 -6.729,2.091 -6.729,3.659 0,1.895 0.849,2.483 8.95,3.528 8.035,1.045 11.824,2.548 11.824,8.167 0,5.75 -4.769,9.017 -13,9.017 z m 37.627,-31.624 c 0,2.745 -2.286,5.031 -5.03,5.031 -2.743,0 -5.03,-2.221 -5.03,-5.031 0,-2.874 2.352,-5.031 5.03,-5.031 2.679,0 5.03,2.222 5.03,5.031 z m -9.276,0 c 0,2.353 1.895,4.247 4.181,4.247 2.352,0 4.246,-1.96 4.246,-4.247 0,-2.352 -1.894,-4.181 -4.246,-4.181 -2.221,0 -4.181,1.829 -4.181,4.181 z m 2.352,-2.809 h 1.96 c 0.653,0 1.959,0 1.959,1.503 0,1.045 -0.653,1.241 -1.045,1.372 0.784,0.065 0.849,0.588 0.915,1.307 0.065,0.457 0.13,1.241 0.261,1.502 h -1.176 c 0,-0.261 -0.196,-1.698 -0.196,-1.764 -0.065,-0.326 -0.196,-0.457 -0.588,-0.457 h -0.98 v 2.287 h -1.11 z m 1.045,2.483 h 0.849 c 0.719,0 0.85,-0.523 0.85,-0.784 0,-0.784 -0.523,-0.784 -0.85,-0.784 h -0.914 v 1.568 z"
         fill="#5fa04e"
         id="path7" />
      <path
         fill-rule="evenodd"
         clip-rule="evenodd"
         d="M 61.994,59.196 A 3.324,3.324 0 0 0 60.295,56.321 L 32.663,40.313 c -0.457,-0.26 -0.98,-0.392 -1.503,-0.457 H 30.9 c -0.523,0 -1.045,0.196 -1.503,0.457 L 1.698,56.256 A 3.35,3.35 0 0 0 0,59.196 l 0.065,42.862 c 0,0.588 0.327,1.176 0.85,1.437 0.522,0.327 1.175,0.327 1.633,0 L 19.01,94.086 a 3.324,3.324 0 0 0 1.698,-2.874 v -20.06 c 0,-1.175 0.653,-2.286 1.699,-2.874 l 6.99,-4.051 c 0.522,-0.327 1.11,-0.457 1.698,-0.457 0.588,0 1.176,0.13 1.633,0.457 l 6.99,4.051 a 3.324,3.324 0 0 1 1.698,2.875 V 91.21 c 0,1.177 0.654,2.287 1.699,2.875 l 16.331,9.409 a 1.593,1.593 0 0 0 1.699,0 c 0.522,-0.261 0.849,-0.849 0.849,-1.437 V 59.196 Z m 133.133,-59 c -0.522,-0.261 -1.176,-0.261 -1.633,0 -0.522,0.327 -0.849,0.85 -0.849,1.437 v 42.47 c 0,0.392 -0.196,0.784 -0.588,1.045 a 1.25,1.25 0 0 1 -1.176,0 l -6.924,-3.985 a 3.367,3.367 0 0 0 -3.332,0 L 152.927,57.17 a 3.325,3.325 0 0 0 -1.698,2.874 v 31.95 c 0,1.177 0.653,2.287 1.698,2.875 l 27.698,16.008 a 3.367,3.367 0 0 0 3.332,0 l 27.698,-16.008 a 3.324,3.324 0 0 0 1.698,-2.874 V 12.349 a 3.35,3.35 0 0 0 -1.698,-2.94 z m -2.547,81.28 c 0,0.327 -0.131,0.588 -0.392,0.719 l -9.473,5.488 a 0.968,0.968 0 0 1 -0.849,0 l -9.472,-5.488 c -0.261,-0.13 -0.392,-0.457 -0.392,-0.719 V 70.5 c 0,-0.326 0.131,-0.588 0.392,-0.718 l 9.472,-5.489 a 0.968,0.968 0 0 1 0.849,0 l 9.473,5.489 c 0.261,0.13 0.392,0.457 0.392,0.718 v 10.977 z m 94.721,-11.238 c 1.046,-0.588 1.634,-1.699 1.634,-2.875 v -7.775 a 3.404,3.404 0 0 0 -1.634,-2.875 L 259.799,40.771 a 3.365,3.365 0 0 0 -3.331,0 L 228.77,56.779 a 3.325,3.325 0 0 0 -1.699,2.874 v 31.95 c 0,1.177 0.654,2.287 1.699,2.875 l 27.502,15.681 c 1.045,0.589 2.286,0.589 3.266,0 l 16.658,-9.277 c 0.523,-0.262 0.849,-0.85 0.849,-1.438 0,-0.588 -0.326,-1.176 -0.849,-1.437 L 248.367,81.999 c -0.522,-0.327 -0.849,-0.85 -0.849,-1.438 v -9.996 c 0,-0.588 0.327,-1.176 0.849,-1.438 l 8.689,-4.965 a 1.593,1.593 0 0 1 1.698,0 l 8.688,4.965 c 0.523,0.327 0.85,0.85 0.85,1.438 v 7.84 c 0,0.588 0.326,1.176 0.849,1.438 a 1.594,1.594 0 0 0 1.698,0 z"
         fill="#333333"
         id="path9" />
      <path
         fill-rule="evenodd"
         clip-rule="evenodd"
         d="m 257.709,68.735 a 0.593,0.593 0 0 1 0.653,0 l 5.291,3.071 c 0.196,0.13 0.327,0.327 0.327,0.588 v 6.142 a 0.686,0.686 0 0 1 -0.327,0.588 l -5.291,3.07 a 0.593,0.593 0 0 1 -0.653,0 l -5.292,-3.07 a 0.685,0.685 0 0 1 -0.326,-0.588 v -6.142 c 0,-0.261 0.13,-0.457 0.326,-0.588 l 5.292,-3.07 z"
         fill="#5fa04e"
         id="path11" />
      <path
         d="m 108.31,40.901 a 3.367,3.367 0 0 0 -3.332,0 L 77.476,56.778 c -1.045,0.589 -1.633,1.7 -1.633,2.875 v 31.82 c 0,1.176 0.653,2.287 1.633,2.875 l 27.502,15.877 a 3.367,3.367 0 0 0 3.332,0 l 27.502,-15.877 c 1.045,-0.588 1.633,-1.7 1.633,-2.875 v -31.82 a 3.406,3.406 0 0 0 -1.633,-2.874 L 108.31,40.9 Z"
         fill="url(#paint0_linear_337_7900)"
         id="path13"
         style="fill:url(#paint0_linear_337_7900)" />
      <path
         d="M 135.877,56.779 108.244,40.9 a 4.543,4.543 0 0 0 -0.849,-0.326 L 76.5,93.5 c 0.261,0.327 0.673,0.804 1,1 l 27.478,15.725 c 0.784,0.457 1.698,0.588 2.548,0.326 l 29.069,-53.184 a 2.044,2.044 0 0 0 -0.718,-0.588 z"
         fill="url(#paint1_linear_337_7900)"
         id="path15"
         style="fill:url(#paint1_linear_337_7900)" />
      <path
         d="m 104.063,35.086 -0.392,0.196 h 0.523 z"
         fill="url(#paint2_linear_337_7900)"
         id="path17"
         style="fill:url(#paint2_linear_337_7900)" />
      <path
         d="M 135.809,94.348 C 136.593,93.89 137.3,93.033 137.3,92 L 107.196,40.51 c -0.784,-0.131 -1.633,-0.066 -2.352,0.391 L 77.408,56.713 107,110.682 a 4.54,4.54 0 0 0 1.241,-0.392 z"
         fill="url(#paint3_linear_337_7900)"
         id="path19"
         style="fill:url(#paint3_linear_337_7900)" />
    </g>
  </g>
  <defs
     id="defs66">
    <linearGradient
       id="paint0_linear_337_7900"
       x1="117.844"
       y1="52.726002"
       x2="92.971001"
       y2="103.459"
       gradientUnits="userSpaceOnUse">
      <stop
         stop-color="#3F873F"
         id="stop25" />
      <stop
         offset=".33"
         stop-color="#3F8B3D"
         id="stop27" />
      <stop
         offset=".637"
         stop-color="#3E9638"
         id="stop29" />
      <stop
         offset=".934"
         stop-color="#3DA92E"
         id="stop31" />
      <stop
         offset="1"
         stop-color="#3DAE2B"
         id="stop33" />
    </linearGradient>
    <linearGradient
       id="paint1_linear_337_7900"
       x1="102.464"
       y1="79.278"
       x2="172.246"
       y2="27.73"
       gradientUnits="userSpaceOnUse">
      <stop
         offset=".138"
         stop-color="#3F873F"
         id="stop36" />
      <stop
         offset=".402"
         stop-color="#52A044"
         id="stop38" />
      <stop
         offset=".713"
         stop-color="#64B749"
         id="stop40" />
      <stop
         offset=".908"
         stop-color="#6ABF4B"
         id="stop42" />
    </linearGradient>
    <linearGradient
       id="paint2_linear_337_7900"
       x1="74.834"
       y1="35.162998"
       x2="138.47301"
       y2="35.162998"
       gradientUnits="userSpaceOnUse">
      <stop
         offset=".092"
         stop-color="#6ABF4B"
         id="stop45" />
      <stop
         offset=".287"
         stop-color="#64B749"
         id="stop47" />
      <stop
         offset=".598"
         stop-color="#52A044"
         id="stop49" />
      <stop
         offset=".862"
         stop-color="#3F873F"
         id="stop51" />
    </linearGradient>
    <linearGradient
       id="paint3_linear_337_7900"
       x1="74.834999"
       y1="75.553001"
       x2="138.47301"
       y2="75.553001"
       gradientUnits="userSpaceOnUse">
      <stop
         offset=".092"
         stop-color="#6ABF4B"
         id="stop54" />
      <stop
         offset=".287"
         stop-color="#64B749"
         id="stop56" />
      <stop
         offset=".598"
         stop-color="#52A044"
         id="stop58" />
      <stop
         offset=".862"
         stop-color="#3F873F"
         id="stop60" />
    </linearGradient>
    <clipPath
       id="clip0_337_7900">
      <path
         fill="#ffffff"
         d="M 0,0 H 289 V 177 H 0 Z"
         id="path63" />
    </clipPath>
  </defs>
</svg>
