<?xml version="1.0" encoding="UTF-8" standalone="no"?>
<svg
   width="100"
   height="100"
   viewBox="0 0 100 100"
   fill="none"
   version="1.1"
   id="svg6"
   sodipodi:docname="sass-logo.svg"
   inkscape:version="1.2.1 (9c6d41e410, 2022-07-14)"
   xmlns:inkscape="http://www.inkscape.org/namespaces/inkscape"
   xmlns:sodipodi="http://sodipodi.sourceforge.net/DTD/sodipodi-0.dtd"
   xmlns="http://www.w3.org/2000/svg"
   xmlns:svg="http://www.w3.org/2000/svg">
  <defs
     id="defs10" />
  <sodipodi:namedview
     id="namedview8"
     pagecolor="#ffffff"
     bordercolor="#000000"
     borderopacity="0.25"
     inkscape:showpageshadow="2"
     inkscape:pageopacity="0.0"
     inkscape:pagecheckerboard="0"
     inkscape:deskcolor="#d1d1d1"
     showgrid="false"
     inkscape:zoom="9.4861111"
     inkscape:cx="11.648609"
     inkscape:cy="31.098097"
     inkscape:window-width="1600"
     inkscape:window-height="837"
     inkscape:window-x="-8"
     inkscape:window-y="-8"
     inkscape:window-maximized="1"
     inkscape:current-layer="svg6" />
  <path
     fill-rule="evenodd"
     clip-rule="evenodd"
     d="m 49.999993,0 c 9.889031,0 19.555965,2.9324512 27.778544,8.42645 8.222418,5.494193 14.630966,13.303063 18.415323,22.439352 3.78451,9.136289 4.77467,19.189675 2.84532,28.888706 C 97.10999,69.453538 92.34789,78.362731 85.35531,85.35531 78.362731,92.34789 69.453538,97.10999 59.754508,99.03918 50.055477,100.96853 40.002091,99.97837 30.865802,96.19386 21.729513,92.409503 13.920643,86.000955 8.42645,77.778537 2.9324512,69.555958 0,59.889024 0,49.999993 0,36.739188 5.267838,24.021448 14.644675,14.644675 24.021448,5.267838 36.739188,0 49.999993,0 Z"
     fill="#cc6699"
     id="path2"
     style="stroke-width:1.6129" />
  <path
     d="M 81.364182,21.400158 C 79.099989,12.52145 64.374991,9.614353 50.439186,14.550159 41.711768,17.482739 33.648382,22.1079 26.710641,28.160802 c -7.674999,7.178548 -8.899998,13.428547 -8.39645,16.039353 1.785806,9.214192 14.403546,15.235643 19.5929,19.703545 v 0.025 c -1.528548,0.753549 -12.728546,6.428548 -15.357094,12.214192 -2.764355,6.114354 0.439193,10.499999 2.564193,11.089353 3.190483,0.768065 6.541289,0.518065 9.582418,-0.714838 3.041128,-1.233064 5.619999,-3.387096 7.374838,-6.160161 1.450161,-2.246773 2.357419,-4.80016 2.649999,-7.458224 0.292581,-2.658064 -0.03758,-5.347741 -0.964355,-7.856128 2.499516,-0.635161 5.097742,-0.784194 7.653548,-0.439194 8.77145,1.025 10.492901,6.499999 10.164353,8.792741 -0.154516,0.81629 -0.483064,1.589516 -0.963064,2.267419 -0.480161,0.677903 -1.100484,1.244516 -1.819194,1.661129 -0.614193,0.382258 -0.803548,0.510806 -0.749999,0.796451 0.075,0.410807 0.357258,0.396452 0.882258,0.307258 1.318064,-0.415161 2.479515,-1.219838 3.331289,-2.308225 0.851774,-1.088226 1.353871,-2.409032 1.440161,-3.788225 C 63.907088,66.97499 58.760637,60.953701 49.646444,61.107249 46.999187,61.031604 44.357736,61.393701 41.828542,62.178701 41.701929,62.034023 41.573381,61.89112 41.442736,61.750152 35.807092,55.739347 25.392738,51.485799 25.832093,43.403703 25.992738,40.464349 27.01419,32.728705 45.83209,23.3429 c 15.428546,-7.689193 27.778545,-5.571451 29.914351,-0.882097 3.049999,6.699999 -6.599999,19.146449 -22.621449,20.9429 -1.770806,0.359355 -3.599838,0.315646 -5.351451,-0.128387 -1.751451,-0.443871 -3.380644,-1.276451 -4.76645,-2.435967 -0.842904,-0.928548 -0.967904,-0.967903 -1.282097,-0.796452 -0.510806,0.282258 -0.185806,1.103549 0,1.589355 0.613387,1.105645 1.441451,2.07758 2.435645,2.858871 0.994193,0.78129 2.134354,1.35629 3.353548,1.691128 6.299192,1.36871 12.869514,0.718871 18.778545,-1.857096 9.717902,-3.746451 17.296449,-14.192901 15.07145,-22.924997 z M 40.064188,66.6537 c 0.709355,2.445322 0.673387,5.046612 -0.103549,7.471289 -0.08339,0.25242 -0.175,0.50242 -0.275,0.75 -0.1,0.247742 -0.208387,0.485807 -0.325,0.714355 -0.600967,1.229838 -1.379677,2.364516 -2.310644,3.367903 -2.903548,3.167741 -6.964354,4.367741 -8.703547,3.357096 -1.87871,-1.089355 -0.939355,-5.557096 2.428548,-9.117902 2.587741,-2.558871 5.571289,-4.68387 8.835643,-6.292741 z"
     fill="#ffffff"
     id="path4"
     style="stroke-width:1.6129" />
</svg>
