<?xml version="1.0" encoding="UTF-8" standalone="no"?>
<svg
   width="400"
   height="400"
   viewBox="0 0 400 400"
   fill="none"
   version="1.1"
   id="svg6"
   sodipodi:docname="sass-logo.svg"
   inkscape:version="1.2.1 (9c6d41e410, 2022-07-14)"
   xmlns:inkscape="http://www.inkscape.org/namespaces/inkscape"
   xmlns:sodipodi="http://sodipodi.sourceforge.net/DTD/sodipodi-0.dtd"
   xmlns="http://www.w3.org/2000/svg"
   xmlns:svg="http://www.w3.org/2000/svg">
  <defs
     id="defs10" />
  <sodipodi:namedview
     id="namedview8"
     pagecolor="#ffffff"
     bordercolor="#000000"
     borderopacity="0.25"
     inkscape:showpageshadow="2"
     inkscape:pageopacity="0.0"
     inkscape:pagecheckerboard="0"
     inkscape:deskcolor="#d1d1d1"
     showgrid="false"
     inkscape:zoom="1.6769234"
     inkscape:cx="-42.041277"
     inkscape:cy="77.522922"
     inkscape:window-width="1600"
     inkscape:window-height="837"
     inkscape:window-x="-8"
     inkscape:window-y="-8"
     inkscape:window-maximized="1"
     inkscape:current-layer="svg6" />
  <path
     fill-rule="evenodd"
     clip-rule="evenodd"
     d="m 199.99998,0 c 39.55612,0 78.22386,11.729805 111.11417,33.705801 32.88968,21.976772 58.52387,53.212253 73.6613,89.757409 15.13804,36.54516 19.09868,76.7587 11.38128,115.55483 -7.71676,38.79612 -26.76516,74.43289 -54.73548,102.40321 -27.97032,27.97032 -63.60709,47.01872 -102.40321,54.73548 -38.79613,7.7174 -79.00967,3.75676 -115.55483,-11.38128 C 86.918054,369.63802 55.682573,344.00383 33.705801,311.11415 11.729805,278.22384 0,239.5561 0,199.99998 0,146.95675 21.071352,96.085794 58.578701,58.578701 96.085794,21.071352 146.95675,0 199.99998,0 Z"
     fill="#cc6699"
     id="path2"
     style="stroke-width:6.4516" />
  <path
     d="M 325.45673,85.600634 C 316.39996,50.085801 257.49997,38.457413 201.75675,58.200637 166.84708,69.930957 134.59353,88.431602 106.84257,112.64321 76.142569,141.3574 71.242573,166.3574 73.256765,176.80062 c 7.143225,36.85677 57.614185,60.94258 78.371605,78.81419 v 0.1 c -6.1142,3.01419 -50.91419,25.71419 -61.42838,48.85676 -11.05742,24.45742 1.756772,42 10.25677,44.35742 12.76193,3.07226 26.16516,2.07226 38.32967,-2.85936 12.16452,-4.93225 22.48,-13.54838 29.49936,-24.64064 5.80064,-8.98709 9.42967,-19.20064 10.59999,-29.8329 1.17033,-10.63225 -0.15032,-21.39096 -3.85742,-31.42451 9.99807,-2.54064 20.39097,-3.13677 30.6142,-1.75677 35.0858,4.1 41.9716,25.99999 40.65741,35.17096 -0.61807,3.26516 -1.93226,6.35806 -3.85226,9.06968 -1.92064,2.71161 -4.40193,4.97806 -7.27677,6.64451 -2.45678,1.52903 -3.2142,2.04323 -3,3.18581 0.3,1.64322 1.42903,1.5858 3.52903,1.22903 5.27226,-1.66065 9.91806,-4.87935 13.32516,-9.2329 3.40709,-4.35291 5.41548,-9.63613 5.76064,-15.1529 0.84259,-21.42903 -19.74322,-45.51419 -56.19999,-44.9 -10.58903,-0.30258 -21.15483,1.14581 -31.27161,4.28581 -0.50645,-0.57871 -1.02064,-1.15033 -1.54322,-1.7142 -22.54258,-24.04322 -64.2,-41.05741 -62.44258,-73.38579 0.64258,-11.75742 4.72839,-42.7 79.99999,-80.243218 61.71419,-30.756773 111.11419,-22.285805 119.65741,-3.528388 12.2,26.799996 -26.4,76.585796 -90.4858,83.771606 -7.08322,1.43742 -14.39935,1.26258 -21.4058,-0.51355 -7.00581,-1.77549 -13.52258,-5.10581 -19.0658,-9.74387 -3.37162,-3.71419 -3.87162,-3.87161 -5.12839,-3.18581 -2.04322,1.12903 -0.74322,4.4142 0,6.35742 2.45355,4.42258 5.7658,8.31032 9.74258,11.43549 3.97677,3.12516 8.53742,5.42516 13.41419,6.76451 25.19677,5.47484 51.47806,2.87548 75.11418,-7.42839 38.87161,-14.9858 69.1858,-56.7716 60.2858,-91.699986 z M 160.25676,266.61481 c 2.83742,9.78128 2.69354,20.18644 -0.4142,29.88515 -0.33356,1.00968 -0.7,2.00968 -1.1,3 -0.4,0.99097 -0.83355,1.94323 -1.3,2.85742 -2.40387,4.91935 -5.51871,9.45807 -9.24258,13.47161 -11.61419,12.67097 -27.85741,17.47097 -34.81419,13.42839 -7.51484,-4.35742 -3.75742,-22.22839 9.7142,-36.47161 10.35096,-10.23548 22.28515,-18.73548 35.34257,-25.17096 z"
     fill="#ffffff"
     id="path4"
     style="stroke-width:6.4516" />
</svg>
